<svg xmlns="http://www.w3.org/2000/svg" width="143" height="36" viewBox="0 0 143 36" fill="none"><path fill-rule="evenodd" clip-rule="evenodd" d="M18.1456 2.30578C18.3131 1.35966 19.1355 0.670166 20.0963 0.670166H28.2156C29.4479 0.670166 30.3812 1.78326 30.1663 2.99669L28.7293 11.111C28.5618 12.0572 27.7395 12.7467 26.7786 12.7467H18.6593C17.427 12.7467 16.4937 11.6336 16.7086 10.4201L18.1456 2.30578ZM15.6585 16.3952C15.826 15.449 16.6483 14.7596 17.6092 14.7596H25.7285C26.9608 14.7596 27.8941 15.8726 27.6792 17.0861L26.2422 25.2004C26.0747 26.1465 25.2523 26.836 24.2915 26.836H16.1722C14.9399 26.836 14.0066 25.7229 14.2215 24.5095L15.6585 16.3952ZM3.41858 14.7596C2.45773 14.7596 1.63541 15.449 1.46786 16.3952L0.0308973 24.5095C-0.183989 25.7229 0.749302 26.836 1.98161 26.836H10.1009C11.0617 26.836 11.8841 26.1465 12.0516 25.2004L13.4886 17.0861C13.7035 15.8726 12.7702 14.7596 11.5379 14.7596H3.41858Z" fill="#1ED760"></path><path d="M32.6296 0.672897H45.9738C48.5048 0.672897 50.497 1.23364 51.9504 2.35514C53.4039 3.45171 54.1306 4.9595 54.1306 6.8785C54.1306 8.2243 53.7798 9.44548 53.0781 10.5421C52.3765 11.6386 51.3866 12.5109 50.1086 13.1589C50.9856 13.6573 51.6623 14.3427 52.1384 15.215C52.6396 16.0623 52.8902 17.0467 52.8902 18.1682C52.8902 19.9128 52.4391 21.4455 51.537 22.7664C50.6348 24.0623 49.3568 25.0717 47.7029 25.7944C46.074 26.4922 44.1695 26.8411 41.9893 26.8411H28.0104L32.6296 0.672897ZM42.6659 21.0841C43.6933 21.0841 44.4952 20.8349 45.0716 20.3364C45.673 19.8131 45.9738 19.1028 45.9738 18.2056C45.9738 17.5576 45.7482 17.0467 45.2971 16.6729C44.8711 16.2741 44.2948 16.0748 43.568 16.0748H36.9523L36.0612 21.0841H42.6659ZM44.2446 10.6168C45.0967 10.6168 45.7733 10.405 46.2745 9.98131C46.7757 9.53271 47.0263 8.94704 47.0263 8.2243C47.0263 7.65109 46.8383 7.20249 46.4624 6.8785C46.1116 6.5296 45.6229 6.35514 44.9964 6.35514H38.6607L37.9078 10.6168H44.2446Z" fill="white"></path><path d="M64.5264 27.2523C62.5968 27.2523 60.9178 26.9283 59.4894 26.2804C58.0861 25.6075 57.0085 24.6729 56.2568 23.4766C55.505 22.2804 55.1291 20.8847 55.1291 19.2897C55.1291 18.6417 55.1792 18.0312 55.2794 17.4579C55.8057 14.4424 57.0962 12.1121 59.1511 10.4673C61.2311 8.79751 63.8623 7.96262 67.0449 7.96262C68.8241 7.96262 70.3778 8.27415 71.7059 8.8972C73.0341 9.49533 74.049 10.3551 74.7506 11.4766C75.4523 12.5732 75.8031 13.8442 75.8031 15.2897C75.8031 16.5857 75.5024 17.9813 74.901 19.4766H62.0079C62.1332 20.1994 62.5467 20.785 63.2483 21.2336C63.95 21.6822 64.8396 21.9065 65.9172 21.9065C67.4959 21.9065 69.0621 21.4081 70.6158 20.4112L73.3974 24.4486C72.1695 25.4455 70.8539 26.1682 69.4506 26.6168C68.0472 27.0405 66.4058 27.2523 64.5264 27.2523ZM69.2626 16.0748C69.3378 15.8006 69.3754 15.5514 69.3754 15.3271C69.3754 14.6542 69.1123 14.1184 68.586 13.7196C68.0598 13.3209 67.308 13.1215 66.3307 13.1215C64.4512 13.1215 63.1732 14.0561 62.4966 15.9252L62.459 16.0748H69.2626Z" fill="white"></path><path d="M84.9708 27.2897C83.1164 27.2897 81.7005 26.866 80.7232 26.0187C79.7459 25.1464 79.2572 23.8879 79.2572 22.243C79.2572 21.6449 79.3074 21.0841 79.4076 20.5607L80.6147 13.6822H77.6409L78.5806 8.37383H81.5502L82.3396 3.92523L89.3311 3.17757L88.3914 8.37383H92.6014L91.6637 13.6822H87.4517L86.4368 19.4766C86.3867 19.8255 86.3616 20.0498 86.3616 20.1495C86.3616 21.0218 86.8628 21.4579 87.8652 21.4579C88.5418 21.4579 89.256 21.296 90.0078 20.972L90.6092 26.0561C88.9553 26.8785 87.0758 27.2897 84.9708 27.2897Z" fill="white"></path><path d="M95.9753 8.37383H102.929L99.6735 26.8411H92.7232L95.9753 8.37383ZM96.464 3.36449C96.6144 2.41745 97.103 1.61994 97.93 0.971964C98.7569 0.323988 99.7092 0 100.787 0C101.839 0 102.666 0.261683 103.268 0.785048C103.894 1.30841 104.207 2.03115 104.207 2.95327C104.207 3.12773 104.182 3.38941 104.132 3.73832C103.957 4.68536 103.456 5.48287 102.629 6.13084C101.827 6.75389 100.887 7.06542 99.8094 7.06542C98.7569 7.06542 97.93 6.80374 97.3285 6.28038C96.7271 5.73209 96.4264 4.98442 96.4264 4.03738C96.4264 3.73832 96.4389 3.51402 96.464 3.36449Z" fill="white"></path><path d="M108.947 7.06542C109.348 4.82243 110.325 3.09034 111.879 1.86916C113.458 0.623054 115.462 0 117.893 0C119.121 0 120.199 0.174454 121.126 0.523364C122.078 0.872274 122.842 1.37072 123.419 2.01869L120.6 6.13084C120.324 5.8567 119.986 5.64486 119.585 5.49533C119.209 5.34579 118.82 5.27103 118.419 5.27103C117.718 5.27103 117.141 5.49533 116.69 5.94393C116.239 6.3676 115.929 6.98154 115.779 7.80397L115.675 8.37383H120.453L119.509 13.7196H114.736L112.423 26.8411H105.465L107.782 13.7196H104.658L105.601 8.37383H108.721L108.947 7.06542Z" fill="white"></path><path d="M127.317 36C125.763 36 124.31 35.8006 122.957 35.4019C121.629 35.028 120.3 34.4299 118.972 33.6075L122.13 28.8972C122.932 29.3956 123.821 29.7819 124.799 30.0561C125.776 30.3551 126.728 30.5047 127.655 30.5047C129.084 30.5047 130.174 30.1807 130.926 29.5327C131.703 28.8847 132.216 27.8505 132.467 26.4299L132.73 24.9346C131.076 26.2305 129.121 26.8785 126.866 26.8785C124.886 26.8785 123.37 26.3676 122.318 25.3458C121.29 24.324 120.777 22.8411 120.777 20.8972C120.777 20.1246 120.872 19.3146 121.022 18.4673L122.806 8.37383H129.751L128.069 17.9439C127.994 18.3178 127.956 18.6791 127.956 19.028C127.956 19.7757 128.132 20.3614 128.482 20.785C128.833 21.1838 129.334 21.3832 129.986 21.3832C130.988 21.3832 131.828 21.0592 132.504 20.4112C133.181 19.7632 133.628 18.8536 133.829 17.6822L135.474 8.37383H142.425L139.083 27.1402C138.531 30.1807 137.303 32.4112 135.399 33.8318C133.519 35.2773 130.825 36 127.317 36Z" fill="white"></path></svg>