<svg width="150" height="150" viewBox="0 0 150 150" fill="none" xmlns="http://www.w3.org/2000/svg">
<path d="M67 39.6188C71.9504 36.7607 78.0496 36.7607 83 39.6188L101.641 50.3812C106.591 53.2393 109.641 58.5214 109.641 64.2376V85.7624C109.641 91.4786 106.591 96.7607 101.641 99.6188L83 110.381C78.0496 113.239 71.9504 113.239 67 110.381L48.359 99.6188C43.4086 96.7607 40.359 91.4786 40.359 85.7624V64.2376C40.359 58.5214 43.4086 53.2393 48.359 50.3812L67 39.6188Z" fill="#00B5C8"/>
<path d="M62 9.81543C70.0444 5.17098 79.9556 5.17098 88 9.81543L124.952 31.1494C132.996 35.7939 137.952 44.3772 137.952 53.666V96.334C137.952 105.623 132.996 114.206 124.952 118.851L88 140.185C79.9556 144.829 70.0444 144.829 62 140.185L25.0479 118.851C17.0036 114.206 12.0479 105.623 12.0479 96.334V53.666C12.0479 44.3772 17.0036 35.7939 25.0479 31.1494L62 9.81543Z" stroke="#7BAFC4" stroke-width="4"/>
<path d="M73.3861 86.48C71.9461 86.48 70.4861 86.32 69.0061 86C67.5261 85.68 66.2261 85.21 65.1061 84.59L67.5061 79.37C68.4061 79.89 69.3461 80.28 70.3261 80.54C71.3261 80.78 72.2661 80.9 73.1461 80.9C73.9461 80.9 74.5961 80.77 75.0961 80.51C75.6161 80.23 75.8761 79.82 75.8761 79.28C75.8761 78.82 75.6861 78.47 75.3061 78.23C74.9261 77.97 74.2861 77.84 73.3861 77.84H70.5961V73.49L76.0261 67.97L76.6561 70.34H66.1861V65H81.8461V69.35L76.4161 74.87L73.0261 72.95H74.8861C77.5261 72.95 79.5361 73.54 80.9161 74.72C82.2961 75.9 82.9861 77.42 82.9861 79.28C82.9861 80.48 82.6461 81.63 81.9661 82.73C81.3061 83.83 80.2661 84.73 78.8461 85.43C77.4461 86.13 75.6261 86.48 73.3861 86.48Z" fill="white"/>
</svg>
