<svg width="150" height="150" viewBox="0 0 150 150" fill="none" xmlns="http://www.w3.org/2000/svg">
<path d="M67 39.6188C71.9504 36.7607 78.0496 36.7607 83 39.6188L101.641 50.3812C106.591 53.2393 109.641 58.5214 109.641 64.2376V85.7624C109.641 91.4786 106.591 96.7607 101.641 99.6188L83 110.381C78.0496 113.239 71.9504 113.239 67 110.381L48.359 99.6188C43.4086 96.7607 40.359 91.4786 40.359 85.7624V64.2376C40.359 58.5214 43.4086 53.2393 48.359 50.3812L67 39.6188Z" fill="#00B5C8"/>
<path d="M62 9.81543C70.0444 5.17098 79.9556 5.17098 88 9.81543L124.952 31.1494C132.996 35.7939 137.952 44.3772 137.952 53.666V96.334C137.952 105.623 132.996 114.206 124.952 118.851L88 140.185C79.9556 144.829 70.0444 144.829 62 140.185L25.0479 118.851C17.0036 114.206 12.0479 105.623 12.0479 96.334V53.666C12.0479 44.3772 17.0036 35.7939 25.0479 31.1494L62 9.81543Z" stroke="#7BAFC4" stroke-width="4"/>
<path d="M71.9805 86V67.46L75.0105 70.34H68.3805V65H79.0605V86H71.9805Z" fill="white"/>
</svg>
