<svg width="150" height="150" viewBox="0 0 150 150" fill="none" xmlns="http://www.w3.org/2000/svg">
<path d="M67 39.6188C71.9504 36.7607 78.0496 36.7607 83 39.6188L101.641 50.3812C106.591 53.2393 109.641 58.5214 109.641 64.2376V85.7624C109.641 91.4786 106.591 96.7607 101.641 99.6188L83 110.381C78.0496 113.239 71.9504 113.239 67 110.381L48.359 99.6188C43.4086 96.7607 40.359 91.4786 40.359 85.7624V64.2376C40.359 58.5214 43.4086 53.2393 48.359 50.3812L67 39.6188Z" fill="#00B5C8"/>
<path d="M62 9.81543C70.0444 5.17098 79.9556 5.17098 88 9.81543L124.952 31.1494C132.996 35.7939 137.952 44.3772 137.952 53.666V96.334C137.952 105.623 132.996 114.206 124.952 118.851L88 140.185C79.9556 144.829 70.0444 144.829 62 140.185L25.0479 118.851C17.0036 114.206 12.0479 105.623 12.0479 96.334V53.666C12.0479 44.3772 17.0036 35.7939 25.0479 31.1494L62 9.81543Z" stroke="#7BAFC4" stroke-width="4"/>
<path d="M66.214 86V81.65L73.804 74.63C74.284 74.17 74.634 73.77 74.854 73.43C75.094 73.09 75.254 72.79 75.334 72.53C75.414 72.25 75.454 71.99 75.454 71.75C75.454 71.23 75.284 70.83 74.944 70.55C74.604 70.25 74.094 70.1 73.414 70.1C72.794 70.1 72.204 70.27 71.644 70.61C71.084 70.93 70.644 71.41 70.324 72.05L64.984 69.38C65.744 67.94 66.884 66.77 68.404 65.87C69.924 64.97 71.814 64.52 74.074 64.52C75.734 64.52 77.204 64.79 78.484 65.33C79.764 65.87 80.764 66.63 81.484 67.61C82.204 68.59 82.564 69.75 82.564 71.09C82.564 71.77 82.474 72.45 82.294 73.13C82.134 73.81 81.794 74.53 81.274 75.29C80.754 76.03 79.984 76.86 78.964 77.78L73.264 82.97L72.154 80.51H83.044V86H66.214Z" fill="white"/>
</svg>
